<mxfile host="app.diagrams.net" modified="2022-10-03T08:17:46.103Z" agent="5.0 (Macintosh; Intel Mac OS X 10_15_7) AppleWebKit/537.36 (KHTML, like Gecko) Chrome/105.0.0.0 Safari/537.36" etag="eZ6Wm0cwd8qO1vN_why4" version="20.4.0" type="github">
  <diagram id="o7sASDVjh1N2ik1_pLDm" name="페이지-1">
    <mxGraphModel dx="1018" dy="658" grid="1" gridSize="10" guides="1" tooltips="1" connect="1" arrows="1" fold="1" page="1" pageScale="1" pageWidth="827" pageHeight="1169" math="0" shadow="0">
      <root>
        <mxCell id="0" />
        <mxCell id="1" parent="0" />
        <mxCell id="sehoXrztrbrZK6JY9v2f-2" value="image, video files in local storage" style="strokeWidth=2;html=1;shape=mxgraph.flowchart.terminator;whiteSpace=wrap;" parent="1" vertex="1">
          <mxGeometry x="40" y="40" width="190" height="60" as="geometry" />
        </mxCell>
        <mxCell id="sehoXrztrbrZK6JY9v2f-3" value="input image, &lt;br&gt;video files" style="strokeWidth=2;html=1;shape=mxgraph.flowchart.start_2;whiteSpace=wrap;" parent="1" vertex="1">
          <mxGeometry x="85" y="140" width="100" height="100" as="geometry" />
        </mxCell>
        <mxCell id="sehoXrztrbrZK6JY9v2f-4" value="Inference with YOLOv5" style="rounded=1;whiteSpace=wrap;html=1;absoluteArcSize=1;arcSize=14;strokeWidth=2;" parent="1" vertex="1">
          <mxGeometry x="274" y="160" width="140" height="60" as="geometry" />
        </mxCell>
        <mxCell id="sehoXrztrbrZK6JY9v2f-5" value="Information of class, &lt;br&gt;bounding box from object" style="shape=parallelogram;html=1;strokeWidth=2;perimeter=parallelogramPerimeter;whiteSpace=wrap;rounded=1;arcSize=12;size=0.23;" parent="1" vertex="1">
          <mxGeometry x="518" y="160" width="242" height="60" as="geometry" />
        </mxCell>
        <mxCell id="sehoXrztrbrZK6JY9v2f-6" value="Modify information of class, bounding box" style="rounded=1;whiteSpace=wrap;html=1;absoluteArcSize=1;arcSize=14;strokeWidth=2;" parent="1" vertex="1">
          <mxGeometry x="560" y="430" width="160" height="60" as="geometry" />
        </mxCell>
        <mxCell id="sehoXrztrbrZK6JY9v2f-8" value="Retraining my model with YOLOv5&amp;nbsp;" style="rounded=1;whiteSpace=wrap;html=1;absoluteArcSize=1;arcSize=14;strokeWidth=2;" parent="1" vertex="1">
          <mxGeometry x="80" y="340" width="140" height="90" as="geometry" />
        </mxCell>
        <mxCell id="sehoXrztrbrZK6JY9v2f-9" value="Reload my model to YOLOv5 detector" style="rounded=1;whiteSpace=wrap;html=1;absoluteArcSize=1;arcSize=14;strokeWidth=2;" parent="1" vertex="1">
          <mxGeometry x="80" y="510" width="140" height="60" as="geometry" />
        </mxCell>
        <mxCell id="sehoXrztrbrZK6JY9v2f-10" value="" style="endArrow=classic;html=1;rounded=0;exitX=0.5;exitY=1;exitDx=0;exitDy=0;exitPerimeter=0;entryX=0.5;entryY=0;entryDx=0;entryDy=0;entryPerimeter=0;" parent="1" source="sehoXrztrbrZK6JY9v2f-2" target="sehoXrztrbrZK6JY9v2f-3" edge="1">
          <mxGeometry width="50" height="50" relative="1" as="geometry">
            <mxPoint x="380" y="300" as="sourcePoint" />
            <mxPoint x="430" y="250" as="targetPoint" />
          </mxGeometry>
        </mxCell>
        <mxCell id="sehoXrztrbrZK6JY9v2f-11" value="" style="endArrow=classic;html=1;rounded=0;exitX=1;exitY=0.5;exitDx=0;exitDy=0;exitPerimeter=0;entryX=0;entryY=0.5;entryDx=0;entryDy=0;" parent="1" source="sehoXrztrbrZK6JY9v2f-3" target="sehoXrztrbrZK6JY9v2f-4" edge="1">
          <mxGeometry width="50" height="50" relative="1" as="geometry">
            <mxPoint x="380" y="300" as="sourcePoint" />
            <mxPoint x="430" y="250" as="targetPoint" />
          </mxGeometry>
        </mxCell>
        <mxCell id="sehoXrztrbrZK6JY9v2f-12" value="" style="endArrow=classic;html=1;rounded=0;entryX=0;entryY=0.5;entryDx=0;entryDy=0;exitX=1;exitY=0.5;exitDx=0;exitDy=0;" parent="1" source="sehoXrztrbrZK6JY9v2f-4" target="sehoXrztrbrZK6JY9v2f-5" edge="1">
          <mxGeometry width="50" height="50" relative="1" as="geometry">
            <mxPoint x="380" y="300" as="sourcePoint" />
            <mxPoint x="430" y="250" as="targetPoint" />
          </mxGeometry>
        </mxCell>
        <mxCell id="sehoXrztrbrZK6JY9v2f-13" value="Is probability of classification &lt;br&gt;over 0.95?" style="rhombus;whiteSpace=wrap;html=1;" parent="1" vertex="1">
          <mxGeometry x="540" y="270" width="200" height="80" as="geometry" />
        </mxCell>
        <mxCell id="sehoXrztrbrZK6JY9v2f-14" value="" style="endArrow=classic;html=1;rounded=0;exitX=0.5;exitY=1;exitDx=0;exitDy=0;entryX=0.5;entryY=0;entryDx=0;entryDy=0;" parent="1" source="sehoXrztrbrZK6JY9v2f-5" target="sehoXrztrbrZK6JY9v2f-13" edge="1">
          <mxGeometry width="50" height="50" relative="1" as="geometry">
            <mxPoint x="380" y="420" as="sourcePoint" />
            <mxPoint x="430" y="370" as="targetPoint" />
          </mxGeometry>
        </mxCell>
        <mxCell id="sehoXrztrbrZK6JY9v2f-15" value="" style="endArrow=classic;html=1;rounded=0;exitX=0.5;exitY=1;exitDx=0;exitDy=0;entryX=0.5;entryY=0;entryDx=0;entryDy=0;startArrow=none;" parent="1" source="sehoXrztrbrZK6JY9v2f-16" target="sehoXrztrbrZK6JY9v2f-6" edge="1">
          <mxGeometry width="50" height="50" relative="1" as="geometry">
            <mxPoint x="380" y="510" as="sourcePoint" />
            <mxPoint x="430" y="460" as="targetPoint" />
          </mxGeometry>
        </mxCell>
        <mxCell id="sehoXrztrbrZK6JY9v2f-16" value="No" style="text;html=1;strokeColor=none;fillColor=none;align=center;verticalAlign=middle;whiteSpace=wrap;rounded=0;" parent="1" vertex="1">
          <mxGeometry x="610" y="370" width="60" height="30" as="geometry" />
        </mxCell>
        <mxCell id="sehoXrztrbrZK6JY9v2f-17" value="" style="endArrow=none;html=1;rounded=0;exitX=0.5;exitY=1;exitDx=0;exitDy=0;entryX=0.5;entryY=0;entryDx=0;entryDy=0;" parent="1" source="sehoXrztrbrZK6JY9v2f-13" target="sehoXrztrbrZK6JY9v2f-16" edge="1">
          <mxGeometry width="50" height="50" relative="1" as="geometry">
            <mxPoint x="640" y="350" as="sourcePoint" />
            <mxPoint x="639" y="400" as="targetPoint" />
          </mxGeometry>
        </mxCell>
        <mxCell id="sehoXrztrbrZK6JY9v2f-18" value="" style="endArrow=classic;html=1;rounded=0;exitX=0;exitY=0.5;exitDx=0;exitDy=0;startArrow=none;entryX=0.966;entryY=0.109;entryDx=0;entryDy=0;entryPerimeter=0;" parent="1" source="sehoXrztrbrZK6JY9v2f-19" target="sehoXrztrbrZK6JY9v2f-21" edge="1">
          <mxGeometry width="50" height="50" relative="1" as="geometry">
            <mxPoint x="400" y="340" as="sourcePoint" />
            <mxPoint x="380" y="310" as="targetPoint" />
          </mxGeometry>
        </mxCell>
        <mxCell id="sehoXrztrbrZK6JY9v2f-19" value="Yes" style="text;html=1;strokeColor=none;fillColor=none;align=center;verticalAlign=middle;whiteSpace=wrap;rounded=0;" parent="1" vertex="1">
          <mxGeometry x="458" y="295" width="60" height="30" as="geometry" />
        </mxCell>
        <mxCell id="sehoXrztrbrZK6JY9v2f-20" value="" style="endArrow=none;html=1;rounded=0;exitX=0;exitY=0.5;exitDx=0;exitDy=0;" parent="1" source="sehoXrztrbrZK6JY9v2f-13" edge="1">
          <mxGeometry width="50" height="50" relative="1" as="geometry">
            <mxPoint x="520" y="310" as="sourcePoint" />
            <mxPoint x="520" y="310" as="targetPoint" />
          </mxGeometry>
        </mxCell>
        <mxCell id="sehoXrztrbrZK6JY9v2f-21" value="Save information&lt;br&gt;of class, &lt;br&gt;bounding box&lt;br&gt;in Memory" style="shape=parallelogram;html=1;strokeWidth=2;perimeter=parallelogramPerimeter;whiteSpace=wrap;rounded=1;arcSize=12;size=0.23;" parent="1" vertex="1">
          <mxGeometry x="296" y="290" width="134" height="190" as="geometry" />
        </mxCell>
        <mxCell id="sehoXrztrbrZK6JY9v2f-22" value="" style="endArrow=classic;html=1;rounded=0;exitX=0;exitY=0.5;exitDx=0;exitDy=0;entryX=0.786;entryY=0.907;entryDx=0;entryDy=0;entryPerimeter=0;" parent="1" source="sehoXrztrbrZK6JY9v2f-6" target="sehoXrztrbrZK6JY9v2f-21" edge="1">
          <mxGeometry width="50" height="50" relative="1" as="geometry">
            <mxPoint x="400" y="420" as="sourcePoint" />
            <mxPoint x="450" y="370" as="targetPoint" />
          </mxGeometry>
        </mxCell>
        <mxCell id="sehoXrztrbrZK6JY9v2f-23" value="" style="endArrow=classic;html=1;rounded=0;exitX=0;exitY=0.5;exitDx=0;exitDy=0;entryX=1;entryY=0.5;entryDx=0;entryDy=0;" parent="1" source="sehoXrztrbrZK6JY9v2f-21" target="sehoXrztrbrZK6JY9v2f-8" edge="1">
          <mxGeometry width="50" height="50" relative="1" as="geometry">
            <mxPoint x="390" y="490" as="sourcePoint" />
            <mxPoint x="440" y="440" as="targetPoint" />
          </mxGeometry>
        </mxCell>
        <mxCell id="sehoXrztrbrZK6JY9v2f-25" value="" style="endArrow=classic;html=1;rounded=0;exitX=0.5;exitY=1;exitDx=0;exitDy=0;entryX=0.5;entryY=0;entryDx=0;entryDy=0;" parent="1" source="sehoXrztrbrZK6JY9v2f-8" target="sehoXrztrbrZK6JY9v2f-9" edge="1">
          <mxGeometry width="50" height="50" relative="1" as="geometry">
            <mxPoint x="350" y="490" as="sourcePoint" />
            <mxPoint x="400" y="440" as="targetPoint" />
          </mxGeometry>
        </mxCell>
        <mxCell id="sehoXrztrbrZK6JY9v2f-27" value="" style="endArrow=classic;html=1;rounded=0;exitX=0;exitY=0.5;exitDx=0;exitDy=0;entryX=0.25;entryY=1;entryDx=0;entryDy=0;" parent="1" source="sehoXrztrbrZK6JY9v2f-9" target="sehoXrztrbrZK6JY9v2f-4" edge="1">
          <mxGeometry width="50" height="50" relative="1" as="geometry">
            <mxPoint x="20" y="500" as="sourcePoint" />
            <mxPoint x="320" y="280" as="targetPoint" />
            <Array as="points">
              <mxPoint x="40" y="540" />
              <mxPoint x="40" y="280" />
              <mxPoint x="300" y="280" />
            </Array>
          </mxGeometry>
        </mxCell>
      </root>
    </mxGraphModel>
  </diagram>
</mxfile>
